<svg xmlns="http://www.w3.org/2000/svg" class="" id="FxSymbol0-0b2" role="presentation" viewBox="0 0 50 50" focusable="false" xmlns:xlink="http://www.w3.org/1999/xlink" xmlns:svg="http://www.w3.org/2000/svg">
<g>
<title/>
<title>Azure_AppConfiguration</title>
<path class="msportalfx-svg-c15" fill="#59b4d9" d="M 40.945 14.52 c 0 -0.357 0.089 -0.8 0.089 -1.159 A 11.477 11.477 0 0 0 29.44 1.945 a 11.255 11.255 0 0 0 -9.364 4.638 a 8.3 8.3 0 0 0 -4.638 -1.338 A 8.736 8.736 0 0 0 6.7 13.9 v 0.713 a 8.648 8.648 0 0 0 -5 7.844 A 9.659 9.659 0 0 0 11.693 32 h 24.614 a 9.659 9.659 0 0 0 9.993 -9.543 a 8.46 8.46 0 0 0 -5.355 -7.937 Z"/>
<path class="msportalfx-svg-c11" fill="#fcd116" d="M 22.935 35.09 l 0.94 2.232 l -2.114 3.7 l 2.32 2.32 L 27.9 41.55 l 2.232 0.94 l 1.168 3.494 l 0.118 0.411 h 3.292 l 1.38 -3.905 l 2.232 -0.94 l 3.289 1.7 l 0.411 0.206 l 2.32 -2.32 L 42.58 37.5 l 0.94 -2.232 l 3.494 -1.174 l 0.411 -0.118 v -3.291 l -3.9 -1.38 l -0.94 -2.231 l 1.7 -3.289 l 0.206 -0.411 l -2.232 -2.32 l -3.7 1.791 l -2.232 -0.94 l -1.174 -3.494 l -0.208 -0.411 H 31.8 l -1.38 3.905 l -2.231 0.94 l -3.289 -1.7 l -0.411 -0.206 l -2.2 2.643 l 1.586 3.377 l -0.94 2.232 l -3.494 1.174 l -0.411 0.206 v 3.139 Z m 5.756 -2.848 a 4.552 4.552 0 1 1 4.551 4.551 a 4.5 4.5 0 0 1 -4.551 -4.551 Z"/>
<path class="msportalfx-svg-c14" fill="#7fba00" d="M 8.769 43.023 l 0.868 0.929 l -0.371 2.207 l 1.564 0.722 l 1.556 -1.575 l 1.27 0.058 l 1.212 1.508 l 0.133 0.182 l 1.62 -0.6 l -0.029 -2.174 l 0.929 -0.868 l 1.93 0.242 l 0.239 0.027 l 0.722 -1.563 l -1.528 -1.475 l 0.058 -1.27 l 1.509 -1.212 l 0.181 -0.133 l -0.6 -1.62 l -2.174 0.029 l -0.868 -0.929 l 0.243 -1.929 l 0.026 -0.24 l -1.52 -0.738 l -1.5 1.553 l -1.27 -0.058 l -1.212 -1.508 l -0.176 -0.166 l -1.548 0.57 l 0.029 2.175 l -0.929 0.867 l -1.925 -0.234 l -0.239 -0.027 l -0.606 1.7 l 1.394 1.376 l -0.057 1.267 l -1.51 1.212 l -0.165 0.176 l 0.57 1.548 Z m 2.319 -2.447 a 2.39 2.39 0 1 1 3.068 1.417 a 2.363 2.363 0 0 1 -3.068 -1.417 Z"/>
<path class="msportalfx-svg-c01" opacity="0.2" fill="#ffffff" d="M 7.947 26.827 c 0 -3.656 1.873 -6.51 5.351 -8.294 v -0.713 a 9.359 9.359 0 0 1 14.18 -7.848 a 12.331 12.331 0 0 1 9.989 -5.084 a 12.081 12.081 0 0 0 -8.027 -3.032 a 11.573 11.573 0 0 0 -9.364 4.727 a 8.3 8.3 0 0 0 -4.638 -1.338 A 8.736 8.736 0 0 0 6.7 13.9 v 0.713 a 8.648 8.648 0 0 0 -5 7.844 a 9.457 9.457 0 0 0 7.5 9.275 a 10.013 10.013 0 0 1 -1.253 -4.905 Z"/>
</g>
</svg>