<svg xmlns="http://www.w3.org/2000/svg" class="fxs-portal-svg" id="FxSymbol0-0f1" role="presentation" viewBox="0 0 50 50" focusable="false" xmlns:xlink="http://www.w3.org/1999/xlink" xmlns:svg="http://www.w3.org/2000/svg">
<g>
<title/>
<path class="msportalfx-svg-c04" fill="#7a7a7a" d="M 19.8 39.4 h 10.6 v 3.4 H 19.8 Z M 23.1 50 H 27 l 3.3 -3.5 H 19.8 Z"/>
<path class="msportalfx-svg-c20" fill="#68217a" d="M 41.2 14.7 v -0.3 C 41.2 6.7 34.6 0.3 26.5 0.2 c -0.2 -0.3 -4.8 0.1 -4.8 0.1 c -7.3 0.9 -13 7 -13 14.1 c 0 0.2 -0.8 5.8 4.9 10.5 c 2.6 2.3 5.3 8.5 5.7 10.3 l 0.3 0.6 h 10.6 l 0.3 -0.6 c 0.4 -1.8 3.2 -8 5.7 -10.2 c 5.7 -4.8 5 -10.1 5 -10.3 Z"/>
<path class="msportalfx-svg-c01" fill="#ffffff" d="M 30.4 18.1 l -1.7 10.6 h -2 V 18.2 l 0.1 -0.2 c 3.8 0 3.3 -3.5 3.3 -3.5 H 19.8 v 0.3 c 0 0.8 0.3 3.3 3.5 3.3 v 10.6 h -2 l -0.5 -2.5 l -1.3 -8.1 c -2.3 0 -3 -1.5 -3.3 -2.6 v -1.4 c 0 -2.8 3.2 -3.1 3.2 -3.1 h 11 s 3.5 0.4 3.5 3.5 c -0.1 0 0 3.6 -3.5 3.6 Z"/>
<path class="msportalfx-svg-c01" opacity="0.15" fill="#ffffff" d="M 41.2 16.4 c 0.1 -1 0 -1.7 0 -1.8 v -0.3 C 41.2 6.6 34.6 0.2 26.5 0.1 c -0.2 -0.3 -4.8 0.1 -4.8 0.1 c -7.3 0.9 -13 7 -13 14.1 c 0 0.1 -0.1 0.9 0 2.1 h 32.5 Z"/>
</g>
</svg>