<?xml version="1.0" encoding="utf-8"?>
<!-- Generator: Adobe Illustrator 22.1.0, SVG Export Plug-In . SVG Version: 6.00 Build 0)  -->
<svg version="1.1" id="Layer_1" 
	xmlns="http://www.w3.org/2000/svg" 
	xmlns:xlink="http://www.w3.org/1999/xlink" x="0px" y="0px" viewBox="0 0 50 50" style="enable-background:new 0 0 50 50;" xml:space="preserve">
	<g>
		<path fill="#59B4D9" d="M40.6,22.6c2,8.6-3.2,17.2-11.8,19.2s-17-3-19.2-11.6S13,13,21.6,11C30,9,38.6,14.2,40.6,22.6z"/>
		<path fill="#ACDAEC" d="M22.6,32.6c0-2.4-2-4.2-4.2-4.2h-0.8c0.6-2.2-0.8-4.6-3-5H9.4c-1,4.8,0.4,9.8,3.8,13.6h5.2
		C20.8,36.8,22.6,35,22.6,32.6z"/>
		<path fill="#ACDAEC" d="M28.2,15.3v0.8h-1.8c-2.4,0-4.4,2-4.4,4.4s2,4.4,4.4,4.4H41c-0.4-5.4-3.6-10-8.2-12.4H31
		C29.4,12.5,28.2,13.7,28.2,15.3z"/>
		<path fill="#ACDAEC" d="M41,28h-8.6c-2,0-3.6,1.6-3.6,3.6c0,0.6,0.2,1.2,0.4,1.8c-2,0.6-2.8,2.6-2.4,4.4c0.4,1.6,1.8,2.4,3.4,2.4h2.4
		C37.2,37.8,40.4,33.2,41,28z"/>
		<path fill="#B8D432" d="M7.4,15.8c-0.2,0-0.4-0.2-0.4-0.4c0-3-2.4-5.6-5.6-5.6C1.2,10,1,9.6,1,9.4S1.2,9,1.4,9C4.6,9,7,6.4,7,3.4
		C7,3,7.2,3,7.4,3S8,3,8,3.4c0,3,2.4,5.6,5.6,5.6C13.8,9,14,9.2,14,9.4s-0.2,0.4-0.4,0.4c-3,0-5.6,2.4-5.6,5.6
		C8,15.6,7.8,15.8,7.4,15.8z"/>
		<path fill="#59B4D9" d="M41.6,47c-0.2,0-0.2,0-0.2-0.2c0-1.8-1.6-3.2-3.4-3.2c-0.2,0-0.2,0-0.2-0.2s0-0.2,0.2-0.2
		c1.8,0,3.2-1.4,3.4-3.2c0-0.2,0-0.2,0.2-0.2s0.2,0,0.2,0.2c0,1.8,1.6,3.2,3.4,3.2c0.2,0,0.2,0,0.2,0.2s0,0.2-0.2,0.2
		c-1.8,0-3.2,1.4-3.4,3.2C42,47,41.8,47,41.6,47z"/>
		<path d="M48.6,12.2c-1.6-2.4-5.2-3-11-1.6c-1.8,0.4-3.6,1-5.2,1.6c1,0.6,2.1,1.1,3,2c1-0.2,2-0.6,2.8-0.8c1.6-0.4,3-0.6,4.6-0.6
		c1.8,0,2.8,0.4,3.2,1c0.6,1,0,3.4-3.2,7.2c-0.6,0.6-1.2,1.4-2,2c-3.6,3.4-7.6,6.6-12,9.2c-4.2,2.6-8.8,4.8-13.6,6.2
		c-5.8,1.8-9.8,1.8-10.6,0.4s0.5-4.7,4.9-8.9c-0.2-1.2-0.4-2.4-0.4-3.6C2.3,32.5,0.4,37.6,2,40.4c1.2,1.6,3.2,2.4,6,2.4
		c3.4-0.2,7-0.8,10.2-2.2c4.2-1.6,8.2-3.6,12-6s7.4-5,10.8-8c1.4-1.2,2.6-2.4,3.8-3.8C48.8,18.2,50,14.6,48.6,12.2z"/>
	</g>
</svg>
