<?xml version="1.0" encoding="utf-8"?>
<!-- Generator: Adobe Illustrator 17.1.0, SVG Export Plug-In . SVG Version: 6.00 Build 0)  -->
<!DOCTYPE svg PUBLIC "-//W3C//DTD SVG 1.1//EN" "http://www.w3.org/Graphics/SVG/1.1/DTD/svg11.dtd">
<svg version="1.1" id="Layer_1"
    xmlns="http://www.w3.org/2000/svg"
    xmlns:xlink="http://www.w3.org/1999/xlink" x="0px" y="0px" height="50px" width="50px" viewBox="0 0 100 100" enable-background="new 0 0 100 100" xml:space="preserve">
    <g>
        <path fill="#59b4d9" d="M 19.55 10.14 C 20.476 4.448 25.381 0.1 31.311 0.1 C 37.9 0.1 43.242 5.464 43.242 12.081 c 0 0.768 -0.079 1.516 -0.216 2.244 c 3.86 0.43 6.874 3.975 6.874 8.293 c 0 4.608 -3.452 8.383 -7.683 8.383 h -21.95 C 14.673 31 10.1 26.182 10.1 20.401 c 0 -5.418 4.164 -9.837 9.45 -10.261 Z" />
        <path fill="#dd5900" clip-rule="evenodd" fill-rule="evenodd" d="M 15 28 a 1 1 0 0 1 -1 -1 v -5 a 1 1 0 0 1 1 -1 h 11 a 1 1 0 0 1 1 1 v 5 a 1 1 0 0 1 -1 1 H 15 Z" />
        <path fill="#a0a1a2" d="M 26 22 v 5 H 15 v -5 h 11 m 0 -2 H 15 a 2 2 0 0 0 -2 2 v 5 a 2 2 0 0 0 2 2 h 11 a 2 2 0 0 0 2 -2 v -5 a 2 2 0 0 0 -2 -2 Z" />
        <path fill="#ba141a" clip-rule="evenodd" fill-rule="evenodd" d="M 28 28 a 1 1 0 0 1 -1 -1 v -5 a 1 1 0 0 1 1 -1 h 11 a 1 1 0 0 1 1 1 v 5 a 1 1 0 0 1 -1 1 H 28 Z" />
        <path fill="#a0a1a2" d="M 39 22 v 5 H 28 v -5 h 11 m 0 -2 H 28 a 2 2 0 0 0 -2 2 v 5 a 2 2 0 0 0 2 2 h 11 a 2 2 0 0 0 2 -2 v -5 a 2 2 0 0 0 -2 -2 Z" />
        <path fill="#ba141a" clip-rule="evenodd" fill-rule="evenodd" d="M 2 28 a 1 1 0 0 1 -1 -1 v -5 a 1 1 0 0 1 1 -1 h 11 a 1 1 0 0 1 1 1 v 5 a 1 1 0 0 1 -1 1 H 2 Z" />
        <path fill="#a0a1a2" d="M 13 22 v 5 H 2 v -5 h 11 m 0 -2 H 2 a 2 2 0 0 0 -2 2 v 5 a 2 2 0 0 0 2 2 h 11 a 2 2 0 0 0 2 -2 v -5 a 2 2 0 0 0 -2 -2 Z" />
        <path fill="#ba141a" clip-rule="evenodd" fill-rule="evenodd" d="M 15 35 a 1 1 0 0 1 -1 -1 v -5 a 1 1 0 0 1 1 -1 h 11 a 1 1 0 0 1 1 1 v 5 a 1 1 0 0 1 -1 1 H 15 Z" />
        <path fill="#a0a1a2" d="M 26 29 v 5 H 15 v -5 h 11 m 0 -2 H 15 a 2 2 0 0 0 -2 2 v 5 a 2 2 0 0 0 2 2 h 11 a 2 2 0 0 0 2 -2 v -5 a 2 2 0 0 0 -2 -2 Z" />
        <path fill="#dd5900" clip-rule="evenodd" fill-rule="evenodd" d="M 2 42 a 1 1 0 0 1 -1 -1 v -5 a 1 1 0 0 1 1 -1 h 11 a 1 1 0 0 1 1 1 v 5 a 1 1 0 0 1 -1 1 H 2 Z" />
        <path fill="#a0a1a2" d="M 13 36 v 5 H 2 v -5 h 11 m 0 -2 H 2 a 2 2 0 0 0 -2 2 v 5 a 2 2 0 0 0 2 2 h 11 a 2 2 0 0 0 2 -2 v -5 a 2 2 0 0 0 -2 -2 Z" />
        <path fill="#ba141a" clip-rule="evenodd" fill-rule="evenodd" d="M 2 35 a 1 1 0 0 1 -1 -1 v -5 a 1 1 0 0 1 1 -1 h 11 a 1 1 0 0 1 1 1 v 5 a 1 1 0 0 1 -1 1 H 2 Z" />
        <path fill="#a0a1a2" d="M 13 29 v 5 H 2 v -5 h 11 m 0 -2 H 2 a 2 2 0 0 0 -2 2 v 5 a 2 2 0 0 0 2 2 h 11 a 2 2 0 0 0 2 -2 v -5 a 2 2 0 0 0 -2 -2 Z" />
        <path fill="#ba141a" clip-rule="evenodd" fill-rule="evenodd" d="M 15 49 a 1 1 0 0 1 -1 -1 v -5 a 1 1 0 0 1 1 -1 h 11 a 1 1 0 0 1 1 1 v 5 a 1 1 0 0 1 -1 1 H 15 Z" />
        <path fill="#a0a1a2" d="M 26 43 v 5 H 15 v -5 h 11 m 0 -2 H 15 a 2 2 0 0 0 -2 2 v 5 a 2 2 0 0 0 2 2 h 11 a 2 2 0 0 0 2 -2 v -5 a 2 2 0 0 0 -2 -2 Z" />
        <path fill="#ba141a" clip-rule="evenodd" fill-rule="evenodd" d="M 28 42 a 1 1 0 0 1 -1 -1 v -5 a 1 1 0 0 1 1 -1 h 11 a 1 1 0 0 1 1 1 v 5 a 1 1 0 0 1 -1 1 H 28 Z" />
        <path fill="#a0a1a2" d="M 39 36 v 5 H 28 v -5 h 11 m 0 -2 H 28 a 2 2 0 0 0 -2 2 v 5 a 2 2 0 0 0 2 2 h 11 a 2 2 0 0 0 2 -2 v -5 a 2 2 0 0 0 -2 -2 Z" />
        <path fill="#ba141a" clip-rule="evenodd" fill-rule="evenodd" d="M 28 35 a 1 1 0 0 1 -1 -1 v -5 a 1 1 0 0 1 1 -1 h 11 a 1 1 0 0 1 1 1 v 5 a 1 1 0 0 1 -1 1 H 28 Z" />
        <path fill="#a0a1a2" d="M 39 29 v 5 H 28 v -5 h 11 m 0 -2 H 28 a 2 2 0 0 0 -2 2 v 5 a 2 2 0 0 0 2 2 h 11 a 2 2 0 0 0 2 -2 v -5 a 2 2 0 0 0 -2 -2 Z" />
        <path fill="#ba141a" clip-rule="evenodd" fill-rule="evenodd" d="M 15 42 a 1 1 0 0 1 -1 -1 v -5 a 1 1 0 0 1 1 -1 h 11 a 1 1 0 0 1 1 1 v 5 a 1 1 0 0 1 -1 1 H 15 Z" />
        <path fill="#a0a1a2" d="M 26 36 v 5 H 15 v -5 h 11 m 0 -2 H 15 a 2 2 0 0 0 -2 2 v 5 a 2 2 0 0 0 2 2 h 11 a 2 2 0 0 0 2 -2 v -5 a 2 2 0 0 0 -2 -2 Z" />
        <path fill="#dd5900" clip-rule="evenodd" fill-rule="evenodd" d="M 28 49 a 1 1 0 0 1 -1 -1 v -5 a 1 1 0 0 1 1 -1 h 11 a 1 1 0 0 1 1 1 v 5 a 1 1 0 0 1 -1 1 H 28 Z" />
        <path fill="#a0a1a2" d="M 39 43 v 5 H 28 v -5 h 11 m 0 -2 H 28 a 2 2 0 0 0 -2 2 v 5 a 2 2 0 0 0 2 2 h 11 a 2 2 0 0 0 2 -2 v -5 a 2 2 0 0 0 -2 -2 Z" />
        <path fill="#ba141a" clip-rule="evenodd" fill-rule="evenodd" d="M 2 49 a 1 1 0 0 1 -1 -1 v -5 a 1 1 0 0 1 1 -1 h 11 a 1 1 0 0 1 1 1 v 5 a 1 1 0 0 1 -1 1 H 2 Z" />
        <path fill="#a0a1a2" d="M 13 43 v 5 H 2 v -5 h 11 m 0 -2 H 2 a 2 2 0 0 0 -2 2 v 5 a 2 2 0 0 0 2 2 h 11 a 2 2 0 0 0 2 -2 v -5 a 2 2 0 0 0 -2 -2 Z" />
    </g>
</svg>
