<svg xmlns="http://www.w3.org/2000/svg" class="" id="FxSymbol0-048" role="presentation" viewBox="0 0 24 24" focusable="false" xmlns:xlink="http://www.w3.org/1999/xlink" xmlns:svg="http://www.w3.org/2000/svg">
<g>
<title/>
<path class="msportalfx-svg-c11" fill="#fcd116" d="M 11.5 1 C 8.5 1 6 3.5 6 6.5 C 6 9 7.6 11 9.7 11.7 L 8.5 13 l 1.5 1.3 l -1.5 1.4 L 10 17 l -1.5 1.5 l 3 2.8 l 2.5 -2.6 v -7.3 c 1.8 -1 3 -2.8 3 -5 c 0 -3 -2.5 -5.4 -5.5 -5.4 Z m 1 4 s -0.2 0 -0.3 0.2 s -0.2 0.2 -0.3 0.2 H 11 l -0.2 -0.2 l -0.2 -0.3 V 4 l 0.2 -0.2 l 0.3 -0.2 h 0.9 l 0.2 0.2 l 0.2 0.3 V 5 Z"/>
<path class="msportalfx-svg-c10" opacity="0.4" fill="#ff8c00" d="M 12 12 v 7.2 l 1 -1 v -6.4 a 5.5 5.5 0 0 1 -1 0.2 Z"/>
<path class="msportalfx-svg-c01" opacity="0.4" fill="#ffffff" d="M 11.5 10 A 3.5 3.5 0 0 0 15 7 H 8 a 3.5 3.5 0 0 0 3.5 3 Z"/>
<path class="msportalfx-svg-c14" fill="#7fba00" d="M 17.4 3.8 c 0.3 0.6 0.4 1 0.5 1.7 a 9.5 9.5 0 0 1 3 7 c 0 5.2 -4.3 9.5 -9.5 9.5 S 2 17.7 2 12.5 a 9.5 9.5 0 0 1 3 -7 l 0.6 -1.7 A 10.5 10.5 0 0 0 1 12.5 C 1 18.3 5.7 23 11.5 23 S 22 18.3 22 12.5 c 0 -3.6 -1.8 -6.8 -4.6 -8.7 Z"/>
</g>
</svg>