<?xml version="1.0" encoding="utf-8"?>
<!-- Generator: Adobe Illustrator 21.0.0, SVG Export Plug-In . SVG Version: 6.00 Build 0)  -->
<svg version="1.1" id="Layer_1" xmlns="http://www.w3.org/2000/svg" xmlns:xlink="http://www.w3.org/1999/xlink" x="0px" y="0px"
	 width="50px" height="50px" viewBox="0 0 50 50" enable-background="new 0 0 50 50" xml:space="preserve">
<path fill="#3999C6" d="M38.2,6L38.2,6c-11-1.2-12.9-6-12.9-6S22.8,6.2,7,6.2v25.6c0,3.1,1.7,6,4.1,8.5l0,0
	c5.4,5.7,14.2,9.6,14.2,9.6s18.3-8,18.3-18.1V6.2C41.6,6.2,39.8,6.1,38.2,6z"/>
<path opacity="0.4" fill="#59B4D9" enable-background="new    " d="M29.9,16.5L38.2,6c-11-1.2-12.9-6-12.9-6S22.8,6.2,7,6.2v25.6
	c0,3.1,1.7,6,4.1,8.5l6.2-7.8L29.9,16.5z"/>
<g>
	<path opacity="0.3" fill="#FFFFFF" enable-background="new    " d="M10.8,24.4v6.1c0,2.5,1.4,4.8,3.3,6.8
		c4.3,4.6,11.3,7.6,11.3,7.6V24.4H10.8z"/>
	<path opacity="0.7" fill="#FFFFFF" enable-background="new    " d="M25.3,44.9c0,0,14.6-6.4,14.6-14.4v-6.1H25.3V44.9z"/>
	<path opacity="0.7" fill="#FFFFFF" enable-background="new    " d="M25.3,5.1L25.3,5.1c0,0-2,5-14.6,5v14.3h14.6V5.1z"/>
	<path opacity="0.3" fill="#FFFFFF" enable-background="new    " d="M35.5,9.9c-8.7-1-10.2-4.7-10.2-4.7v19.2h14.6V10.1
		C38.3,10.1,36.8,10,35.5,9.9z"/>
</g>
<g>
	<path fill="#3E3E3E" d="M20.322,29.25h-1.777l-4.683-7.205c-0.119-0.182-0.216-0.372-0.294-0.567h-0.041
		c0.037,0.209,0.055,0.659,0.055,1.347v6.426H12.01v-9.803h1.894l4.525,7.034c0.191,0.292,0.314,0.492,0.369,0.602h0.027
		c-0.045-0.26-0.068-0.7-0.068-1.319v-6.316h1.565V29.25z"/>
	<path fill="#3E3E3E" d="M22.298,28.86v-1.675c0.15,0.137,0.329,0.26,0.537,0.369s0.427,0.201,0.66,0.277
		c0.232,0.074,0.465,0.133,0.697,0.174s0.447,0.062,0.643,0.062c0.684,0,1.193-0.114,1.528-0.342s0.502-0.558,0.502-0.991
		c0-0.232-0.056-0.434-0.167-0.605c-0.112-0.17-0.268-0.327-0.469-0.468c-0.2-0.141-0.437-0.277-0.708-0.407
		s-0.562-0.266-0.872-0.407c-0.333-0.178-0.643-0.358-0.93-0.54s-0.537-0.384-0.749-0.605s-0.378-0.471-0.499-0.749
		s-0.181-0.604-0.181-0.978c0-0.46,0.104-0.86,0.311-1.2s0.481-0.62,0.82-0.841s0.726-0.385,1.159-0.492s0.875-0.161,1.326-0.161
		c1.025,0,1.772,0.116,2.242,0.349v1.606c-0.556-0.401-1.271-0.602-2.146-0.602c-0.242,0-0.482,0.023-0.721,0.068
		s-0.454,0.121-0.643,0.226s-0.343,0.239-0.461,0.403S24,21.696,24,21.929c0,0.219,0.045,0.408,0.137,0.567s0.225,0.305,0.4,0.438
		s0.39,0.261,0.643,0.386s0.546,0.261,0.878,0.407c0.342,0.178,0.664,0.365,0.967,0.561c0.304,0.196,0.57,0.413,0.8,0.649
		c0.23,0.237,0.413,0.5,0.547,0.79c0.135,0.29,0.202,0.619,0.202,0.988c0,0.497-0.101,0.916-0.301,1.258s-0.471,0.62-0.811,0.834
		c-0.339,0.214-0.729,0.369-1.172,0.465c-0.442,0.096-0.909,0.144-1.401,0.144c-0.164,0-0.366-0.013-0.605-0.037
		c-0.239-0.025-0.484-0.062-0.735-0.109c-0.25-0.049-0.488-0.106-0.711-0.175S22.435,28.947,22.298,28.86z"/>
	<path fill="#3E3E3E" d="M38.021,28.58c-1.021,0.557-2.158,0.834-3.411,0.834c-1.449,0-2.623-0.451-3.521-1.354
		s-1.347-2.096-1.347-3.582c0-1.518,0.491-2.763,1.474-3.736c0.981-0.973,2.229-1.459,3.742-1.459c1.089,0,2.005,0.16,2.748,0.479
		v1.675c-0.752-0.501-1.647-0.752-2.687-0.752c-1.044,0-1.899,0.344-2.567,1.032c-0.667,0.688-1.001,1.579-1.001,2.673
		c0,1.125,0.287,2.011,0.861,2.655c0.574,0.646,1.354,0.968,2.338,0.968c0.675,0,1.258-0.13,1.75-0.39v-2.331h-2.064v-1.367h3.685
		C38.021,23.925,38.021,28.58,38.021,28.58z"/>
</g>
</svg>
