<?xml version="1.0" encoding="iso-8859-1"?>
<!-- Generator: Adobe Illustrator 19.0.0, SVG Export Plug-In . SVG Version: 6.00 Build 0)  -->
<svg version="1.1" id="Layer_1" xmlns="http://www.w3.org/2000/svg" xmlns:xlink="http://www.w3.org/1999/xlink" x="0px" y="0px"
	viewBox="0 0 460.088 460.088" style="enable-background:new 0 0 460.088 460.088;" xml:space="preserve">
	<g>
		<g>
			<g>
				<path d="M25.555,139.872h257.526V88.761H25.555C11.442,88.761,0,100.203,0,114.316C0,128.429,11.442,139.872,25.555,139.872z" fill="#424242"/>
				<path d="M25.555,242.429h257.526v-51.111H25.555C11.442,191.318,0,202.76,0,216.874C0,230.988,11.442,242.429,25.555,242.429z" fill="#424242"/>
				<path d="M25.555,293.874v0.001C11.442,293.875,0,305.316,0,319.43s11.442,25.555,25.555,25.555h178.91
				c-2.021-6.224-3.088-12.789-3.088-19.523c0-11.277,2.957-22.094,8.48-31.588H25.555z" fill="#424242"/>
				<path d="M450.623,302.611c-12.62-12.621-33.083-12.621-45.704,0l-26.535,26.535V52.926c0-17.849-14.469-32.317-32.318-32.317
				s-32.318,14.469-32.318,32.317v276.22l-26.535-26.535c-12.621-12.62-33.083-12.621-45.704,0
				c-12.621,12.621-12.621,33.083,0,45.704l81.7,81.699c12.596,12.6,33.084,12.643,45.714,0l81.7-81.699
				C463.243,335.694,463.244,315.232,450.623,302.611z" fill="#424242"/>
			</g>
		</g>
	</g>
	<g>
	</g>
	<g>
	</g>
	<g>
	</g>
	<g>
	</g>
	<g>
	</g>
	<g>
	</g>
	<g>
	</g>
	<g>
	</g>
	<g>
	</g>
	<g>
	</g>
	<g>
	</g>
	<g>
	</g>
	<g>
	</g>
	<g>
	</g>
	<g>
	</g>
</svg>
