<svg xmlns="http://www.w3.org/2000/svg" id="Layer_1" enable-background="new 0 0 50 50" viewBox="0 0 50 50" x="0px" y="0px" width="50px" height="50px" xmlns:xml="http://www.w3.org/XML/1998/namespace" xml:space="preserve" version="1.1">
<path fill="#3999c6" d="M 25.047 22.647 c -0.078 0 -0.15 -0.023 -0.22 -0.064 l -14.711 -8.49 c -0.14 -0.08 -0.223 -0.228 -0.223 -0.389 c 0 -0.156 0.083 -0.304 0.223 -0.382 l 14.616 -8.435 c 0.139 -0.077 0.309 -0.077 0.442 0 l 14.714 8.495 c 0.133 0.078 0.221 0.224 0.221 0.382 c 0 0.163 -0.088 0.308 -0.221 0.387 l -14.619 8.433 C 25.2 22.624 25.126 22.647 25.047 22.647" />
<path fill="#59b4d9" d="M 22.932 43.284 c -0.08 0 -0.158 -0.019 -0.226 -0.059 L 8.042 34.761 c -0.142 -0.079 -0.226 -0.224 -0.226 -0.386 V 17.39 c 0 -0.159 0.084 -0.305 0.226 -0.389 c 0.134 -0.077 0.306 -0.077 0.448 0 l 14.662 8.464 c 0.136 0.082 0.218 0.228 0.218 0.387 v 16.987 c 0 0.163 -0.083 0.305 -0.218 0.386 C 23.079 43.266 23.006 43.284 22.932 43.284" />
<path fill="#59b4d9" d="M 27.081 43.284 c -0.075 0 -0.152 -0.019 -0.226 -0.059 c -0.136 -0.081 -0.22 -0.223 -0.22 -0.386 V 25.962 c 0 -0.159 0.084 -0.305 0.22 -0.387 l 14.66 -8.461 c 0.142 -0.078 0.308 -0.078 0.448 0 c 0.134 0.08 0.22 0.227 0.22 0.385 v 16.877 c 0 0.162 -0.085 0.306 -0.22 0.386 l -14.665 8.464 C 27.237 43.266 27.158 43.284 27.081 43.284" />
<path opacity="0.5" fill="#ffffff" d="M 27.081 43.284 c -0.075 0 -0.152 -0.019 -0.226 -0.059 c -0.136 -0.081 -0.22 -0.223 -0.22 -0.386 V 25.962 c 0 -0.159 0.084 -0.305 0.22 -0.387 l 14.66 -8.461 c 0.142 -0.078 0.308 -0.078 0.448 0 c 0.134 0.08 0.22 0.227 0.22 0.385 v 16.877 c 0 0.162 -0.085 0.306 -0.22 0.386 l -14.665 8.464 C 27.237 43.266 27.158 43.284 27.081 43.284" />
<path fill="#7a7a7a" d="M 9.558 45.171 c -0.247 0 -0.497 -0.063 -0.726 -0.195 l -6.845 -3.952 C 0.835 40.358 0 38.911 0 37.582 V 12.418 c 0 -1.329 0.835 -2.777 1.987 -3.441 l 6.845 -3.952 c 0.697 -0.401 1.586 -0.163 1.987 0.532 c 0.402 0.696 0.163 1.585 -0.532 1.987 l -6.845 3.952 c -0.243 0.141 -0.532 0.641 -0.532 0.922 v 25.164 c 0 0.281 0.289 0.782 0.532 0.922 l 6.845 3.952 c 0.696 0.402 0.934 1.291 0.532 1.987 C 10.55 44.91 10.061 45.171 9.558 45.171 Z" />
<path fill="#7a7a7a" d="M 40.442 4.829 c 0.247 0 0.497 0.063 0.726 0.195 l 6.845 3.952 C 49.165 9.642 50 11.089 50 12.418 v 25.164 c 0 1.329 -0.835 2.777 -1.987 3.441 l -6.845 3.952 c -0.697 0.401 -1.586 0.163 -1.987 -0.532 c -0.402 -0.696 -0.163 -1.585 0.532 -1.987 l 6.845 -3.952 c 0.243 -0.141 0.532 -0.641 0.532 -0.922 V 12.418 c 0 -0.281 -0.289 -0.782 -0.532 -0.922 l -6.845 -3.952 c -0.696 -0.402 -0.934 -1.291 -0.532 -1.987 C 39.45 5.09 39.939 4.829 40.442 4.829 Z" />
</svg>